<svg width="39" height="39" viewBox="0 0 39 39" fill="none" xmlns="http://www.w3.org/2000/svg">
<rect width="39" height="39" rx="8" fill="white"/>
<path d="M26.8216 9.55104C26.0869 8.81632 24.8993 8.81632 24.1645 9.55104L23.1547 10.5575L26.4391 13.8419L27.449 12.8321C28.1837 12.0974 28.1837 10.9098 27.449 10.175L26.8216 9.55104ZM16.7838 16.9318C16.5792 17.1364 16.4215 17.388 16.3309 17.6665L15.3379 20.6456C15.2406 20.9341 15.3177 21.2528 15.5324 21.4709C15.7472 21.689 16.0659 21.7628 16.3577 21.6655L19.3369 20.6725C19.612 20.5819 19.8636 20.4242 20.0716 20.2195L25.6843 14.6035L22.3965 11.3157L16.7838 16.9318ZM14.2207 10.9702C12.4426 10.9702 11 12.4127 11 14.1908V22.7793C11 24.5574 12.4426 26 14.2207 26H22.8092C24.5873 26 26.0299 24.5574 26.0299 22.7793V19.5586C26.0299 18.9648 25.5501 18.4851 24.9563 18.4851C24.3625 18.4851 23.8827 18.9648 23.8827 19.5586V22.7793C23.8827 23.3731 23.403 23.8529 22.8092 23.8529H14.2207C13.6269 23.8529 13.1471 23.3731 13.1471 22.7793V14.1908C13.1471 13.597 13.6269 13.1173 14.2207 13.1173H17.4414C18.0352 13.1173 18.5149 12.6375 18.5149 12.0437C18.5149 11.4499 18.0352 10.9702 17.4414 10.9702H14.2207Z" fill="black" fill-opacity="0.8"/>
</svg>
