<svg width="39" height="39" viewBox="0 0 39 39" fill="none" xmlns="http://www.w3.org/2000/svg">
<rect width="39" height="39" rx="8" fill="white"/>
<path d="M14.3579 15.131V22.369C14.6972 22.5627 14.9805 22.843 15.1764 23.1786H22.4939C22.4939 23.1751 22.4974 23.1717 22.4974 23.1682L22.34 22.8949L21.2207 20.9574C21.1717 20.9608 21.1228 20.9608 21.0738 20.9608C19.839 20.9608 18.8352 19.9679 18.8352 18.7465C18.8352 17.5252 19.839 16.5323 21.0738 16.5323C21.1228 16.5323 21.1717 16.5323 21.2207 16.5357L22.34 14.5982L22.4974 14.3249L22.4939 14.3145H15.1764C14.9805 14.6501 14.6972 14.9304 14.3579 15.1241V15.131ZM24.4422 22.0714C25.6734 22.0783 26.6703 23.0644 26.6703 24.2857C26.6703 25.507 25.6664 26.5 24.4317 26.5C23.6027 26.5 22.8787 26.0537 22.4939 25.3929H15.1764C14.7882 26.0537 14.0676 26.5 13.2386 26.5C12.0039 26.5 11 25.507 11 24.2857C11 23.4657 11.4512 22.7496 12.1193 22.369V15.131C11.4512 14.7504 11 14.0343 11 13.2143C11 11.993 12.0039 11 13.2386 11C14.0676 11 14.7917 11.4463 15.1764 12.1071H22.4939C22.8822 11.4463 23.6027 11 24.4317 11C25.6664 11 26.6703 11.993 26.6703 13.2143C26.6703 14.4356 25.6734 15.4217 24.4422 15.4286L24.2848 15.7019L23.1655 17.6394L23.085 17.7778C23.232 18.0719 23.3124 18.4006 23.3124 18.75C23.3124 19.0994 23.232 19.4281 23.085 19.7222L23.1655 19.8606L24.2848 21.7981L24.4422 22.0714Z" fill="black" fill-opacity="0.8"/>
</svg>
