<svg width="39" height="39" viewBox="0 0 39 39" fill="none" xmlns="http://www.w3.org/2000/svg">
<rect width="39" height="39" rx="8" fill="white"/>
<path d="M15 13.6214V23.5539C15 23.8807 15.2784 24.1432 15.6187 24.1432C15.7959 24.1432 15.9675 24.0709 16.0856 23.9423L18.4087 21.411L20.0428 24.5263C20.265 24.9495 20.805 25.121 21.2494 24.9093C21.6937 24.6977 21.8737 24.1834 21.6516 23.7602L20.0569 20.7146H23.3784C23.7216 20.7146 24 20.4494 24 20.1226C24 19.9538 23.9241 19.7931 23.7919 19.6806L16.0856 13.158C15.9647 13.0563 15.8128 13 15.6525 13C15.2925 13 15 13.2786 15 13.6214Z" fill="black" fill-opacity="0.8"/>
</svg>
